# xmcd
#
# Track frame offsets:
#	187
#	16615
#	25787
#	38862
#	54207
#	67367
#	80377
#	97215
#	108727
#	127010
#	137975
#
# Disc length: 2060
#
# Revision: 1
# Processed by: cddbd v1.5.1PL0 Copyright (c) Steve Scherf et al.
# Submitted via: VisiTrax 2.9.5.180 - For more info visit www.synapsa.com
# Normalized: r0:DSETVAR1
#
DISCID=98080a0b
DTITLE=Various Artist - Sounds of the seasons
DYEAR=1993
DGENRE=Christmas
TTITLE0=John Anderson - What child is this
TTITLE1=Dale daniel - O come Emmanuel
TTITLE2=Remingtons - Blue christmas
TTITLE3=Lisa Stewart - The christmas song
TTITLE4=Oak Ridge Boys - Go tell it on the mountain
TTITLE5=Doug Supernaw - Christmas will never be the same
TTITLE6=Tim Ryan - I'll be home for christmas
TTITLE7=Louise Mandrell - Santa Claus is coming to town
TTITLE8=Jesse Hunter - Little drummer boy
TTITLE9=Eddie Rabbitt - Jingle bell rock
TTITLE10=Lorrie Morgan - Christmas at our house
EXTD=
EXTT0=
EXTT1=
EXTT2=
EXTT3=
EXTT4=
EXTT5=
EXTT6=
EXTT7=
EXTT8=
EXTT9=
EXTT10=
PLAYORDER=
